<?xml version="1.0" standalone="no"?><!DOCTYPE svg PUBLIC "-//W3C//DTD SVG 1.1//EN" "http://www.w3.org/Graphics/SVG/1.1/DTD/svg11.dtd"><svg height="248" node-id="1" sillyvg="true" template-height="248" template-width="265" version="1.1" viewBox="0 0 265 248" width="265" xmlns="http://www.w3.org/2000/svg" xmlns:xlink="http://www.w3.org/1999/xlink"><defs node-id="94"></defs><path d="M 93.46 155.19 L 79.90 155.19 C 79.67 155.19 79.47 155.03 79.42 154.80 C 77.42 145.80 75.24 62.94 75.15 59.42 C 75.15 59.29 75.20 59.16 75.29 59.06 C 75.38 58.97 75.51 58.91 75.64 58.91 L 75.64 58.91 C 75.91 58.91 76.13 59.13 76.14 59.40 C 76.14 60.25 78.30 143.40 80.30 154.19 L 92.90 154.19 C 92.08 146.77 83.38 68.03 81.81 59.87 C 81.78 59.74 81.81 59.61 81.88 59.50 C 81.95 59.39 82.07 59.31 82.20 59.29 C 82.33 59.26 82.47 59.29 82.58 59.36 C 82.69 59.43 82.77 59.55 82.79 59.68 C 84.44 68.24 93.86 153.78 93.95 154.68 C 93.97 154.82 93.92 154.96 93.83 155.07 C 93.73 155.16 93.59 155.20 93.46 155.19 Z" fill="#261c2a" fill-rule="nonzero" node-id="97" stroke="none" target-height="96.28943" target-width="18.818687" target-x="75.14732" target-y="58.909946"></path><path d="M 79.09 148.00 C 78.83 148.00 78.61 147.79 78.60 147.53 C 78.58 147.26 78.79 147.02 79.06 147.00 L 92.53 146.10 C 92.81 146.08 93.05 146.29 93.06 146.56 C 93.08 146.84 92.88 147.08 92.60 147.10 L 79.13 148.00 Z" fill="#261c2a" fill-rule="nonzero" node-id="99" stroke="none" target-height="1.9195404" target-width="14.501556" target-x="78.58277" target-y="146.08067"></path><path d="M 78.41 137.20 C 78.13 137.20 77.91 136.98 77.91 136.70 C 77.91 136.42 78.13 136.20 78.41 136.20 L 91.41 135.88 C 91.68 135.88 91.91 136.10 91.92 136.37 C 91.93 136.50 91.88 136.63 91.79 136.73 C 91.70 136.82 91.57 136.88 91.44 136.88 L 78.44 137.20 Z" fill="#261c2a" fill-rule="nonzero" node-id="101" stroke="none" target-height="1.3202057" target-width="14.015404" target-x="77.91" target-y="135.87979"></path><path d="M 78.00 128.36 C 77.72 128.36 77.50 128.14 77.50 127.86 C 77.50 127.58 77.72 127.36 78.00 127.36 L 90.37 126.26 C 90.65 126.24 90.89 126.44 90.92 126.72 C 90.94 126.99 90.74 127.24 90.46 127.26 L 78.00 128.36 Z" fill="#261c2a" fill-rule="nonzero" node-id="103" stroke="none" target-height="2.124855" target-width="13.43985" target-x="77.5" target-y="126.235146"></path><path d="M 77.56 118.79 C 77.28 118.81 77.05 118.60 77.03 118.32 C 77.01 118.04 77.22 117.81 77.50 117.79 L 89.17 116.37 C 89.45 116.34 89.69 116.54 89.73 116.81 C 89.76 117.08 89.56 117.33 89.29 117.36 L 77.62 118.78 Z" fill="#261c2a" fill-rule="nonzero" node-id="105" stroke="none" target-height="2.4661026" target-width="12.745834" target-x="77.01343" target-y="116.34047"></path><path d="M 77.18 108.85 C 76.90 108.85 76.68 108.63 76.68 108.35 C 76.68 108.07 76.90 107.85 77.18 107.85 L 88.24 107.68 C 88.37 107.67 88.51 107.72 88.60 107.81 C 88.70 107.91 88.75 108.04 88.75 108.17 C 88.75 108.30 88.70 108.43 88.61 108.53 C 88.52 108.62 88.39 108.68 88.26 108.68 L 77.19 108.85 Z" fill="#261c2a" fill-rule="nonzero" node-id="107" stroke="none" target-height="1.1784363" target-width="12.073067" target-x="76.68" target-y="107.67156"></path><path d="M 77.18 100.38 C 76.90 100.39 76.67 100.18 76.66 99.91 C 76.64 99.63 76.85 99.39 77.13 99.38 L 87.13 98.38 C 87.41 98.36 87.65 98.56 87.67 98.83 C 87.70 99.11 87.50 99.36 87.22 99.38 L 77.22 100.38 Z" fill="#261c2a" fill-rule="nonzero" node-id="109" stroke="none" target-height="2.0386581" target-width="11.058662" target-x="76.64119" target-y="98.35515"></path><path d="M 76.49 90.15 C 76.23 90.15 76.01 89.95 75.99 89.69 C 75.98 89.56 76.02 89.43 76.10 89.32 C 76.19 89.22 76.31 89.16 76.44 89.15 L 86.00 88.28 C 86.28 88.26 86.52 88.46 86.55 88.73 C 86.57 89.01 86.37 89.26 86.09 89.28 L 76.58 90.15 Z" fill="#261c2a" fill-rule="nonzero" node-id="111" stroke="none" target-height="1.8956909" target-width="10.59375" target-x="75.976105" target-y="88.25515"></path><path d="M 70.67 54.55 C 70.67 54.55 56.00 54.06 48.45 58.63 C 40.90 63.20 36.33 87.16 39.21 86.30 C 42.09 85.44 48.74 71.24 48.74 71.24 C 48.74 71.24 49.60 83.86 51.91 83.35 C 54.22 82.84 57.12 71.24 57.12 71.24 C 57.12 71.24 58.26 76.77 60.28 78.24 C 62.30 79.71 73.91 59.00 76.80 56.89 C 79.69 54.78 75.86 54.45 70.67 54.55 Z" fill="#62928f" fill-rule="nonzero" node-id="113" stroke="none" target-height="33.100002" target-width="43.36" target-x="36.33" target-y="54.06"></path><path d="M 77.60 51.83 C 77.60 51.83 70.14 38.76 62.71 36.50 C 51.62 33.12 38.63 40.17 38.34 42.50 C 38.05 44.83 53.07 41.00 53.07 41.00 C 53.07 41.00 43.54 46.00 45.85 48.00 C 48.16 50.00 60.57 45.00 60.57 45.00 C 60.57 45.00 51.91 49.69 54.80 51.82 C 57.69 53.95 78.76 57.20 77.60 51.83 Z" fill="#62928f" fill-rule="nonzero" node-id="115" stroke="none" target-height="24.080002" target-width="40.710003" target-x="38.05" target-y="33.12"></path><path d="M 78.51 54.55 C 78.51 54.55 93.23 54.06 100.73 58.63 C 108.23 63.20 112.85 87.16 110.00 86.30 C 107.15 85.44 100.47 71.24 100.47 71.24 C 100.47 71.24 98.13 80.16 95.82 79.64 C 93.51 79.12 89.82 67.30 89.82 67.30 C 89.82 67.30 89.64 72.13 87.62 73.58 C 85.60 75.03 77.64 60.00 74.75 57.84 C 71.86 55.68 73.32 54.45 78.51 54.55 Z" fill="#62928f" fill-rule="nonzero" node-id="117" stroke="none" target-height="33.100002" target-width="40.989998" target-x="71.86" target-y="54.06"></path><path d="M 71.58 51.83 C 71.58 51.83 79.38 40.19 86.28 36.65 C 97.28 30.99 110.55 40.17 110.84 42.45 C 111.13 44.73 96.11 41.00 96.11 41.00 C 96.11 41.00 105.64 46.00 103.33 48.00 C 101.02 50.00 88.61 45.00 88.61 45.00 C 88.61 45.00 97.27 49.69 94.38 51.82 C 91.49 53.95 70.42 57.20 71.58 51.83 Z" fill="#62928f" fill-rule="nonzero" node-id="119" stroke="none" target-height="26.210001" target-width="40.71" target-x="70.42" target-y="30.99"></path><path d="M 74.57 52.75 C 74.57 52.75 80.85 63.94 82.36 69.52 C 83.87 75.10 81.50 98.90 78.68 97.93 C 75.86 96.96 73.49 90.74 70.24 86.06 C 66.99 81.38 71.41 51.00 74.57 52.75 Z" fill="#62928f" fill-rule="nonzero" node-id="121" stroke="none" target-height="47.9" target-width="16.880005" target-x="66.99" target-y="51"></path><path d="M 97.93 64.64 C 97.69 64.64 97.49 64.47 97.44 64.24 C 97.27 63.38 95.97 62.35 95.53 62.05 C 95.36 61.96 95.26 61.78 95.27 61.59 C 95.27 61.40 95.39 61.23 95.56 61.16 C 95.73 61.08 95.93 61.10 96.08 61.22 C 96.29 61.36 98.14 62.63 98.42 64.04 C 98.47 64.31 98.30 64.57 98.03 64.63 Z" fill="#261c2a" fill-rule="nonzero" node-id="123" stroke="none" target-height="3.5641556" target-width="3.2088623" target-x="95.260765" target-y="61.075844"></path><path d="M 92.25 64.64 C 92.01 64.64 91.81 64.47 91.76 64.24 C 91.59 63.38 90.29 62.35 89.85 62.05 C 89.68 61.96 89.58 61.78 89.59 61.59 C 89.59 61.40 89.71 61.23 89.88 61.16 C 90.05 61.08 90.25 61.10 90.40 61.22 C 90.61 61.36 92.46 62.63 92.74 64.04 C 92.79 64.31 92.62 64.57 92.35 64.63 Z" fill="#261c2a" fill-rule="nonzero" node-id="125" stroke="none" target-height="3.5641556" target-width="3.2088623" target-x="89.580765" target-y="61.075844"></path><path d="M 92.25 60.43 C 92.01 60.43 91.81 60.26 91.76 60.03 C 91.59 59.17 90.29 58.14 89.85 57.85 C 89.62 57.69 89.56 57.38 89.71 57.15 C 89.86 56.92 90.17 56.85 90.40 57.00 C 90.61 57.14 92.46 58.41 92.74 59.82 C 92.77 59.95 92.74 60.09 92.67 60.20 C 92.59 60.31 92.48 60.38 92.35 60.41 Z" fill="#261c2a" fill-rule="nonzero" node-id="127" stroke="none" target-height="3.5787544" target-width="3.2081833" target-x="89.558365" target-y="56.851295"></path><path d="M 87.65 60.43 C 87.41 60.43 87.21 60.26 87.16 60.03 C 86.99 59.17 85.69 58.14 85.25 57.85 C 85.02 57.69 84.96 57.38 85.11 57.15 C 85.26 56.92 85.57 56.85 85.80 57.00 C 86.01 57.14 87.86 58.41 88.14 59.82 C 88.17 59.95 88.14 60.09 88.07 60.20 C 88.00 60.31 87.88 60.39 87.75 60.41 Z" fill="#261c2a" fill-rule="nonzero" node-id="129" stroke="none" target-height="3.5787544" target-width="3.2110443" target-x="84.95837" target-y="56.851295"></path><path d="M 99.00 69.00 C 98.76 69.00 98.56 68.82 98.51 68.59 C 98.34 67.74 97.04 66.71 96.60 66.41 C 96.43 66.32 96.33 66.14 96.34 65.95 C 96.34 65.76 96.46 65.59 96.63 65.52 C 96.80 65.44 97.00 65.46 97.15 65.58 C 97.36 65.72 99.21 66.99 99.49 68.40 C 99.52 68.53 99.49 68.67 99.42 68.78 C 99.34 68.89 99.23 68.96 99.10 68.99 Z" fill="#261c2a" fill-rule="nonzero" node-id="131" stroke="none" target-height="3.5641556" target-width="3.1857834" target-x="96.330765" target-y="65.435844"></path><path d="M 103.12 67.75 C 102.88 67.75 102.68 67.57 102.63 67.34 C 102.46 66.49 101.16 65.46 100.72 65.16 C 100.55 65.07 100.45 64.89 100.46 64.70 C 100.46 64.51 100.58 64.34 100.75 64.27 C 100.92 64.19 101.12 64.21 101.27 64.33 C 101.48 64.47 103.33 65.74 103.61 67.15 C 103.64 67.28 103.61 67.42 103.54 67.53 C 103.46 67.64 103.35 67.71 103.22 67.74 Z" fill="#261c2a" fill-rule="nonzero" node-id="133" stroke="none" target-height="3.5641556" target-width="3.1857834" target-x="100.45077" target-y="64.185844"></path><path d="M 105.05 72.85 C 104.79 72.85 104.57 72.64 104.55 72.38 C 104.29 71.43 103.75 70.58 103.00 69.94 C 102.86 69.82 102.79 69.64 102.82 69.45 C 102.86 69.27 102.99 69.12 103.17 69.07 C 103.35 69.02 103.54 69.07 103.67 69.20 C 103.86 69.37 105.50 70.89 105.57 72.33 C 105.58 72.46 105.53 72.59 105.44 72.69 C 105.36 72.79 105.23 72.84 105.10 72.85 Z" fill="#261c2a" fill-rule="nonzero" node-id="135" stroke="none" target-height="3.832611" target-width="2.791397" target-x="102.78678" target-y="69.01787"></path><path d="M 84.68 42.94 C 84.53 42.94 84.39 42.87 84.30 42.76 C 84.12 42.55 84.15 42.23 84.36 42.05 C 84.56 41.89 86.29 40.49 87.73 40.62 C 87.86 40.63 87.99 40.70 88.07 40.80 C 88.15 40.90 88.19 41.04 88.18 41.17 C 88.17 41.30 88.11 41.42 88.01 41.51 C 87.90 41.59 87.77 41.63 87.64 41.62 C 86.66 41.75 85.74 42.16 85.00 42.82 C 84.91 42.90 84.80 42.94 84.68 42.94 Z" fill="#261c2a" fill-rule="nonzero" node-id="137" stroke="none" target-height="2.4501572" target-width="4.0699997" target-x="84.12395" target-y="40.49"></path><path d="M 83.05 48.38 C 82.84 48.38 82.64 48.25 82.57 48.05 C 82.50 47.85 82.56 47.62 82.73 47.49 C 82.93 47.33 84.65 45.93 86.10 46.06 C 86.23 46.07 86.36 46.14 86.44 46.24 C 86.52 46.34 86.56 46.48 86.55 46.61 C 86.54 46.74 86.48 46.86 86.38 46.95 C 86.27 47.03 86.14 47.07 86.01 47.06 C 85.03 47.19 84.11 47.61 83.37 48.26 C 83.28 48.34 83.17 48.38 83.05 48.38 Z" fill="#261c2a" fill-rule="nonzero" node-id="139" stroke="none" target-height="2.453064" target-width="4.063881" target-x="82.50006" target-y="45.93"></path><path d="M 69.83 46.23 C 69.64 46.23 69.46 46.12 69.38 45.95 C 68.76 45.20 67.93 44.65 67.00 44.36 C 66.74 44.27 66.59 43.99 66.68 43.73 C 66.72 43.60 66.81 43.50 66.93 43.44 C 67.05 43.38 67.18 43.37 67.31 43.41 C 67.55 43.49 69.67 44.22 70.31 45.51 C 70.37 45.63 70.38 45.77 70.34 45.89 C 70.30 46.02 70.21 46.12 70.09 46.18 C 70.01 46.22 69.92 46.23 69.83 46.23 Z" fill="#261c2a" fill-rule="nonzero" node-id="141" stroke="none" target-height="2.8671227" target-width="3.789154" target-x="66.594604" target-y="43.366123"></path><path d="M 66.60 41.85 C 66.41 41.85 66.23 41.74 66.15 41.57 C 65.52 40.81 64.68 40.27 63.73 40.00 C 63.47 39.91 63.33 39.62 63.41 39.36 C 63.45 39.23 63.55 39.13 63.67 39.07 C 63.79 39.01 63.92 39.01 64.05 39.05 C 64.29 39.13 66.40 39.86 67.05 41.14 C 67.17 41.39 67.08 41.69 66.83 41.81 C 66.76 41.84 66.68 41.86 66.60 41.85 Z" fill="#261c2a" fill-rule="nonzero" node-id="143" stroke="none" target-height="2.849949" target-width="3.8438606" target-x="63.3296" target-y="39.005444"></path><path d="M 62.07 42.54 C 61.88 42.54 61.70 42.43 61.62 42.26 C 60.99 41.50 60.15 40.94 59.20 40.66 C 58.94 40.57 58.80 40.29 58.88 40.03 C 58.97 39.78 59.25 39.63 59.51 39.72 C 59.75 39.79 61.87 40.53 62.51 41.81 C 62.57 41.93 62.58 42.07 62.54 42.19 C 62.50 42.32 62.41 42.42 62.29 42.48 C 62.22 42.52 62.15 42.54 62.07 42.54 Z" fill="#261c2a" fill-rule="nonzero" node-id="145" stroke="none" target-height="2.9084473" target-width="3.784359" target-x="58.799397" target-y="39.634396"></path><path d="M 60.00 38.70 C 59.86 38.70 59.73 38.64 59.63 38.54 C 58.81 37.99 57.85 37.69 56.86 37.69 C 56.73 37.68 56.60 37.63 56.51 37.53 C 56.42 37.43 56.37 37.30 56.38 37.17 C 56.40 36.90 56.62 36.69 56.89 36.69 C 57.15 36.69 59.38 36.80 60.36 37.86 C 60.45 37.95 60.51 38.08 60.51 38.21 C 60.51 38.34 60.45 38.47 60.36 38.56 C 60.26 38.65 60.13 38.70 60.00 38.70 Z" fill="#261c2a" fill-rule="nonzero" node-id="147" stroke="none" target-height="2.012806" target-width="4.1324844" target-x="56.374588" target-y="36.689533"></path><path d="M 79.00 47.17 C 78.79 47.17 78.59 47.04 78.52 46.84 C 78.45 46.64 78.51 46.41 78.68 46.28 C 78.88 46.12 80.61 44.72 82.05 44.85 C 82.18 44.86 82.31 44.93 82.39 45.03 C 82.47 45.13 82.51 45.27 82.50 45.40 C 82.49 45.53 82.43 45.65 82.33 45.74 C 82.22 45.82 82.09 45.86 81.96 45.85 C 80.98 45.98 80.06 46.40 79.32 47.05 C 79.23 47.13 79.12 47.17 79.00 47.17 Z" fill="#261c2a" fill-rule="nonzero" node-id="149" stroke="none" target-height="2.453064" target-width="4.0638885" target-x="78.45006" target-y="44.72"></path><path d="M 72.80 49.49 C 72.67 49.49 72.55 49.44 72.45 49.35 C 71.61 48.83 70.64 48.56 69.65 48.59 C 69.37 48.59 69.15 48.37 69.15 48.09 C 69.15 47.81 69.37 47.59 69.65 47.59 C 69.90 47.59 72.14 47.59 73.16 48.59 C 73.35 48.79 73.35 49.10 73.16 49.30 C 73.07 49.41 72.94 49.48 72.80 49.49 Z" fill="#261c2a" fill-rule="nonzero" node-id="151" stroke="none" target-height="1.9000015" target-width="4.201782" target-x="69.15" target-y="47.59"></path><path d="M 89.16 43.17 C 88.95 43.17 88.77 43.04 88.70 42.84 C 88.62 42.64 88.68 42.43 88.84 42.29 C 89.04 42.13 90.84 40.72 92.21 40.86 C 92.34 40.87 92.46 40.93 92.55 41.03 C 92.63 41.14 92.67 41.27 92.66 41.40 C 92.65 41.53 92.59 41.66 92.49 41.74 C 92.39 41.83 92.25 41.87 92.12 41.85 C 91.14 41.98 90.22 42.40 89.48 43.06 C 89.39 43.13 89.28 43.17 89.16 43.17 Z" fill="#261c2a" fill-rule="nonzero" node-id="153" stroke="none" target-height="2.449997" target-width="4.0500946" target-x="88.6238" target-y="40.72"></path><path d="M 89.15 38.86 C 89.00 38.86 88.86 38.80 88.77 38.68 C 88.59 38.47 88.62 38.15 88.83 37.97 C 89.03 37.81 90.83 36.40 92.20 36.54 C 92.33 36.55 92.46 36.62 92.54 36.72 C 92.62 36.82 92.66 36.96 92.65 37.09 C 92.64 37.22 92.58 37.34 92.48 37.43 C 92.37 37.51 92.24 37.55 92.11 37.54 C 91.13 37.67 90.21 38.09 89.47 38.74 C 89.38 38.82 89.27 38.86 89.15 38.86 Z" fill="#261c2a" fill-rule="nonzero" node-id="155" stroke="none" target-height="2.4616203" target-width="4.0699997" target-x="88.59395" target-y="36.4"></path><path d="M 94.44 38.00 C 94.22 38.00 94.03 37.85 93.97 37.64 C 93.91 37.42 94.00 37.20 94.18 37.08 C 94.40 36.95 96.33 35.81 97.72 36.15 C 97.85 36.18 97.96 36.26 98.03 36.38 C 98.10 36.49 98.12 36.63 98.09 36.76 C 98.06 36.89 97.98 37.00 97.87 37.07 C 97.75 37.13 97.62 37.15 97.49 37.12 C 96.49 37.13 95.52 37.44 94.70 38.00 C 94.61 38.02 94.53 38.02 94.44 38.00 Z" fill="#261c2a" fill-rule="nonzero" node-id="157" stroke="none" target-height="2.2139168" target-width="4.2128754" target-x="93.91021" target-y="35.81"></path><path d="M 50.51 61.71 C 50.36 61.71 50.22 61.64 50.12 61.52 C 50.03 61.42 49.99 61.29 50.01 61.16 C 50.02 61.02 50.09 60.90 50.19 60.82 C 50.39 60.66 52.19 59.29 53.59 59.44 C 53.85 59.49 54.03 59.73 54.00 60.00 C 53.97 60.27 53.72 60.47 53.45 60.44 C 52.47 60.56 51.54 60.96 50.79 61.60 C 50.71 61.66 50.61 61.70 50.51 61.71 Z" fill="#261c2a" fill-rule="nonzero" node-id="159" stroke="none" target-height="2.4199982" target-width="4.037319" target-x="49.993687" target-y="59.29"></path><path d="M 50.51 67.13 C 50.36 67.13 50.22 67.07 50.12 66.95 C 49.95 66.73 49.98 66.42 50.19 66.24 C 50.39 66.09 52.19 64.72 53.59 64.87 C 53.86 64.90 54.06 65.15 54.03 65.42 C 54.02 65.55 53.95 65.67 53.85 65.76 C 53.74 65.84 53.61 65.88 53.48 65.86 C 52.50 65.97 51.57 66.37 50.82 67.00 C 50.74 67.08 50.63 67.13 50.51 67.13 Z" fill="#261c2a" fill-rule="nonzero" node-id="161" stroke="none" target-height="2.4117432" target-width="4.112892" target-x="49.94637" target-y="64.72"></path><path d="M 46.62 65.28 C 46.47 65.28 46.33 65.21 46.23 65.09 C 46.15 64.99 46.11 64.85 46.12 64.72 C 46.14 64.59 46.20 64.47 46.31 64.39 C 46.50 64.23 48.31 62.86 49.70 63.01 C 49.97 63.04 50.17 63.29 50.14 63.56 C 50.13 63.69 50.06 63.82 49.96 63.90 C 49.86 63.98 49.72 64.02 49.59 64.01 C 48.60 64.11 47.68 64.52 46.93 65.17 C 46.84 65.24 46.73 65.28 46.62 65.28 Z" fill="#261c2a" fill-rule="nonzero" node-id="163" stroke="none" target-height="2.4199982" target-width="4.06279" target-x="46.106472" target-y="62.86"></path><path d="M 45.24 70.19 C 45.12 70.19 45.01 70.15 44.92 70.07 C 44.71 69.89 44.69 69.57 44.87 69.36 C 45.03 69.17 46.52 67.50 47.96 67.36 C 48.09 67.35 48.22 67.39 48.32 67.48 C 48.42 67.56 48.48 67.69 48.49 67.82 C 48.50 67.95 48.46 68.08 48.37 68.19 C 48.29 68.29 48.16 68.35 48.03 68.36 C 47.08 68.66 46.24 69.23 45.62 70.00 C 45.53 70.11 45.39 70.18 45.24 70.19 Z" fill="#261c2a" fill-rule="nonzero" node-id="165" stroke="none" target-height="2.841011" target-width="3.809578" target-x="44.691467" target-y="67.34899"></path><path d="M 56.70 63.50 C 56.55 63.50 56.41 63.43 56.31 63.31 C 56.14 63.09 56.18 62.78 56.39 62.61 C 56.59 62.45 58.39 61.08 59.79 61.23 C 60.06 61.27 60.26 61.51 60.23 61.79 C 60.20 62.06 59.95 62.26 59.68 62.23 C 58.69 62.34 57.76 62.75 57.00 63.39 C 56.91 63.46 56.81 63.49 56.70 63.50 Z" fill="#261c2a" fill-rule="nonzero" node-id="167" stroke="none" target-height="2.4199982" target-width="4.119713" target-x="56.13982" target-y="61.08"></path><path d="M 74.00 79.75 C 73.74 79.75 73.53 79.55 73.51 79.30 C 73.51 79.05 73.29 76.82 74.20 75.70 C 74.37 75.49 74.69 75.46 74.90 75.63 C 75.00 75.71 75.07 75.84 75.08 75.97 C 75.10 76.10 75.06 76.24 74.97 76.34 C 74.53 77.23 74.37 78.22 74.50 79.20 C 74.51 79.33 74.47 79.47 74.39 79.57 C 74.31 79.67 74.18 79.74 74.05 79.75 Z" fill="#261c2a" fill-rule="nonzero" node-id="169" stroke="none" target-height="4.293373" target-width="1.8070831" target-x="73.29" target-y="75.45748"></path><path d="M 76.20 73.42 C 75.94 73.42 75.73 73.22 75.70 72.97 C 75.70 72.72 75.49 70.49 76.40 69.38 C 76.57 69.17 76.88 69.13 77.10 69.30 C 77.31 69.48 77.34 69.79 77.17 70.01 C 76.73 70.89 76.56 71.89 76.70 72.87 C 76.71 73.00 76.67 73.14 76.59 73.24 C 76.51 73.34 76.38 73.41 76.25 73.42 Z" fill="#261c2a" fill-rule="nonzero" node-id="171" stroke="none" target-height="4.2901764" target-width="1.8536377" target-x="75.49" target-y="69.12982"></path><path d="M 76.20 66.86 C 75.94 66.86 75.73 66.66 75.70 66.41 C 75.70 66.16 75.49 63.93 76.40 62.81 C 76.58 62.60 76.89 62.57 77.11 62.74 C 77.32 62.92 77.35 63.24 77.17 63.45 C 76.73 64.34 76.57 65.33 76.70 66.31 C 76.71 66.44 76.67 66.58 76.59 66.68 C 76.51 66.78 76.38 66.85 76.25 66.86 Z" fill="#261c2a" fill-rule="nonzero" node-id="173" stroke="none" target-height="4.291733" target-width="1.8567352" target-x="75.49" target-y="62.568268"></path><path d="M 72.71 74.15 C 72.45 74.15 72.24 73.96 72.21 73.70 C 72.21 73.45 71.99 71.22 72.90 70.11 C 73.07 69.89 73.39 69.86 73.60 70.04 C 73.82 70.21 73.85 70.52 73.68 70.74 C 73.23 71.63 73.07 72.63 73.20 73.61 C 73.21 73.74 73.18 73.87 73.09 73.97 C 73.01 74.07 72.89 74.14 72.76 74.15 Z" fill="#261c2a" fill-rule="nonzero" node-id="175" stroke="none" target-height="4.2902603" target-width="1.8639755" target-x="71.99" target-y="69.86103"></path><path d="M 71.26 82.49 C 71.00 82.50 70.78 82.30 70.76 82.04 C 70.76 81.79 70.54 79.56 71.45 78.45 C 71.53 78.35 71.66 78.28 71.79 78.27 C 71.92 78.25 72.06 78.29 72.16 78.38 C 72.37 78.55 72.40 78.87 72.23 79.08 C 71.78 79.96 71.62 80.96 71.75 81.94 C 71.78 82.21 71.58 82.46 71.31 82.49 Z" fill="#261c2a" fill-rule="nonzero" node-id="177" stroke="none" target-height="4.243248" target-width="1.8625183" target-x="70.54" target-y="78.252914"></path><path d="M 72.71 68.11 C 72.45 68.11 72.24 67.92 72.21 67.66 C 72.21 67.41 71.99 65.18 72.90 64.06 C 73.08 63.84 73.39 63.81 73.61 63.99 C 73.83 64.17 73.86 64.48 73.68 64.70 C 73.24 65.58 73.07 66.58 73.20 67.56 C 73.23 67.83 73.03 68.08 72.76 68.11 Z" fill="#261c2a" fill-rule="nonzero" node-id="179" stroke="none" target-height="4.2980194" target-width="1.8667297" target-x="71.99" target-y="63.81327"></path><path d="M 56.76 59.18 C 56.55 59.18 56.36 59.04 56.29 58.84 C 56.22 58.64 56.28 58.42 56.45 58.29 C 56.65 58.14 58.45 56.76 59.85 56.92 C 60.12 56.95 60.32 57.20 60.29 57.47 C 60.28 57.60 60.21 57.72 60.11 57.81 C 60.00 57.89 59.87 57.93 59.74 57.91 C 58.76 58.03 57.83 58.43 57.08 59.07 C 56.99 59.14 56.88 59.18 56.76 59.18 Z" fill="#261c2a" fill-rule="nonzero" node-id="181" stroke="none" target-height="2.4216385" target-width="4.098194" target-x="56.22107" target-y="56.76"></path><path d="M 62.07 58.44 C 61.89 58.44 61.72 58.34 61.63 58.19 C 61.50 57.95 61.58 57.65 61.81 57.51 C 62.03 57.38 63.98 56.28 65.37 56.64 C 65.65 56.71 65.81 56.99 65.75 57.27 C 65.68 57.54 65.40 57.71 65.12 57.64 C 64.13 57.60 63.16 57.87 62.32 58.40 C 62.24 58.44 62.16 58.45 62.07 58.44 Z" fill="#261c2a" fill-rule="nonzero" node-id="183" stroke="none" target-height="2.1697845" target-width="4.3149567" target-x="61.499077" target-y="56.28"></path><path d="M 161.56 71.51 L 241.33 71.51 L 223.75 46.51 L 215.15 60.14 L 199.81 30.55 L 182.81 59.55 L 176.35 50.28 Z" fill="#91afa6" fill-rule="nonzero" node-id="185" stroke="none" target-height="40.960003" target-width="79.770004" target-x="161.56" target-y="30.55"></path><path d="M 202.70 55.51 C 202.54 55.51 202.38 55.44 202.29 55.30 L 197.49 48.49 L 194.61 53.00 C 194.52 53.15 194.35 53.24 194.18 53.23 C 194.01 53.22 193.85 53.13 193.76 52.98 L 190.00 46.73 C 189.86 46.49 189.94 46.19 190.18 46.05 C 190.41 45.91 190.72 45.99 190.86 46.22 L 194.16 51.75 L 197.01 47.33 C 197.10 47.19 197.25 47.10 197.42 47.10 C 197.58 47.10 197.74 47.18 197.83 47.31 L 202.64 54.12 L 207.79 46.20 C 207.94 45.97 208.25 45.90 208.49 46.06 C 208.72 46.21 208.78 46.52 208.63 46.75 L 203.08 55.29 C 202.99 55.43 202.83 55.51 202.67 55.51 Z" fill="#261c2a" fill-rule="nonzero" node-id="187" stroke="none" target-height="9.611313" target-width="18.916916" target-x="189.86496" target-y="45.903122"></path><path d="M 221.75 61.54 C 221.63 61.54 221.52 61.50 221.43 61.42 L 216.73 57.48 C 216.52 57.31 216.49 56.99 216.66 56.78 C 216.84 56.57 217.16 56.54 217.37 56.72 L 221.59 60.25 L 223.30 56.87 C 223.38 56.72 223.53 56.61 223.71 56.60 C 223.88 56.59 224.05 56.67 224.15 56.81 L 226.62 60.25 L 229.95 56.75 C 230.04 56.66 230.17 56.60 230.31 56.60 C 230.44 56.60 230.57 56.66 230.66 56.75 C 230.75 56.84 230.81 56.97 230.81 57.10 C 230.81 57.23 230.75 57.36 230.66 57.45 L 226.91 61.39 C 226.81 61.50 226.67 61.56 226.52 61.55 C 226.37 61.54 226.23 61.46 226.14 61.34 L 223.81 58.07 L 222.18 61.27 C 222.12 61.41 221.99 61.51 221.84 61.54 Z" fill="#261c2a" fill-rule="nonzero" node-id="189" stroke="none" target-height="5.0157127" target-width="14.31958" target-x="216.48749" target-y="56.543945"></path><path d="M 177.68 61.54 C 177.54 61.54 177.41 61.48 177.31 61.38 L 175.80 59.78 L 174.08 61.40 C 173.89 61.56 173.62 61.56 173.43 61.40 L 170.89 59.40 C 170.74 59.30 170.65 59.11 170.67 58.93 C 170.69 58.74 170.82 58.59 170.99 58.52 C 171.16 58.45 171.36 58.49 171.50 58.61 L 173.71 60.32 L 175.48 58.64 C 175.58 58.55 175.71 58.50 175.84 58.51 C 175.97 58.51 176.10 58.57 176.19 58.67 L 177.66 60.23 L 180.73 56.71 C 180.91 56.50 181.23 56.48 181.44 56.66 C 181.65 56.84 181.67 57.16 181.49 57.37 L 178.06 61.31 C 177.96 61.41 177.83 61.47 177.69 61.48 Z" fill="#261c2a" fill-rule="nonzero" node-id="191" stroke="none" target-height="5.0822983" target-width="11.019485" target-x="170.65277" target-y="56.477745"></path><path d="M 158.65 153.59 C 158.65 153.59 218.65 154.59 249.79 174.82 C 280.93 195.05 189.30 217.25 124.54 217.22 C 59.78 217.19 -2.52 206.00 10.75 181.67 C 24.02 157.34 116.40 149.19 158.65 153.59 Z" fill="#91afa6" fill-rule="nonzero" node-id="193" stroke="none" target-height="68.06" target-width="283.44998" target-x="-2.52" target-y="149.19"></path><path d="M 28.70 189.43 C 28.70 189.43 39.50 105.21 98.58 99.43 C 157.66 93.65 202.00 155.94 208.36 188.08 Z" fill="#cca8a9" fill-rule="nonzero" node-id="195" stroke="none" target-height="95.77999" target-width="179.66" target-x="28.7" target-y="93.65"></path><path d="M 157.87 109.00 L 195.81 102.58 C 195.81 102.58 181.64 89.65 188.24 87.33 C 194.84 85.01 214.81 132.85 214.81 132.85 C 214.81 132.85 234.88 130.92 242.19 138.28 C 249.50 145.64 247.96 204.11 185.09 197.52 C 146.24 193.45 142.65 133.17 152.56 115.94 C 152.56 115.94 138.49 105.16 142.42 101.35 C 146.35 97.54 157.87 109.00 157.87 109.00 Z" fill="#cca8a9" fill-rule="nonzero" node-id="197" stroke="none" target-height="119.1" target-width="111.009995" target-x="138.49" target-y="85.01"></path><path d="M 172.33 151.08 C 172.24 151.08 172.15 151.06 172.08 151.01 C 171.96 150.95 171.88 150.84 171.84 150.71 C 171.80 150.58 171.82 150.44 171.89 150.33 C 172.03 150.09 186.07 126.50 216.68 132.20 C 216.96 132.25 217.14 132.51 217.09 132.79 C 217.04 133.07 216.78 133.25 216.50 133.20 C 186.58 127.64 172.89 150.62 172.76 150.85 C 172.67 151.00 172.50 151.08 172.33 151.08 Z" fill="#261c2a" fill-rule="nonzero" node-id="199" stroke="none" target-height="24.58316" target-width="45.33519" target-x="171.80452" target-y="126.5"></path><path d="M 177.55 134.27 L 177.43 134.27 C 173.93 134.06 171.50 128.36 171.43 128.12 C 171.38 128.00 171.38 127.86 171.43 127.73 C 171.48 127.61 171.58 127.51 171.70 127.46 C 171.82 127.41 171.96 127.41 172.08 127.46 C 172.20 127.51 172.30 127.61 172.35 127.73 C 172.35 127.73 174.64 133.10 177.52 133.27 C 177.79 133.30 178.06 133.19 178.23 132.98 C 179.49 131.58 178.99 126.38 178.68 124.50 C 178.64 124.23 178.83 123.97 179.10 123.92 C 179.37 123.88 179.62 124.07 179.67 124.34 C 179.79 125.08 180.78 131.65 178.97 133.65 C 178.61 134.06 178.09 134.28 177.55 134.27 Z" fill="#261c2a" fill-rule="nonzero" node-id="201" stroke="none" target-height="10.399979" target-width="9.4040985" target-x="171.3759" target-y="123.88382"></path><path d="M 196.33 128.40 L 196.20 128.40 C 192.71 128.18 190.27 122.48 190.20 122.24 C 190.10 121.99 190.23 121.71 190.47 121.60 C 190.72 121.50 191.01 121.61 191.12 121.85 C 191.12 121.91 193.42 127.22 196.29 127.40 C 196.56 127.43 196.83 127.32 197.00 127.11 C 198.27 125.71 197.76 120.51 197.46 118.62 C 197.44 118.49 197.47 118.36 197.54 118.25 C 197.62 118.14 197.74 118.07 197.87 118.05 C 198.00 118.03 198.14 118.06 198.24 118.14 C 198.35 118.22 198.42 118.34 198.44 118.47 C 198.56 119.21 199.55 125.78 197.74 127.78 C 197.38 128.19 196.87 128.41 196.33 128.40 Z" fill="#261c2a" fill-rule="nonzero" node-id="203" stroke="none" target-height="10.382271" target-width="9.445175" target-x="190.10483" target-y="118.02993"></path><path d="M 185.09 157.00 L 185.09 157.00 C 184.81 157.00 184.59 156.78 184.59 156.50 C 184.59 155.76 184.68 149.24 187.68 148.26 C 189.55 147.65 191.90 149.32 194.86 153.37 C 194.94 153.48 194.97 153.61 194.95 153.74 C 194.93 153.87 194.86 153.98 194.75 154.06 C 194.53 154.23 194.22 154.18 194.05 153.96 C 190.77 149.47 188.94 148.90 187.99 149.21 C 185.99 149.85 185.59 154.69 185.59 156.50 C 185.59 156.78 185.37 157.00 185.09 157.00 Z" fill="#261c2a" fill-rule="nonzero" node-id="205" stroke="none" target-height="9.350006" target-width="10.38028" target-x="184.59" target-y="147.65"></path><path d="M 209.77 146.06 L 209.64 146.06 C 209.38 145.99 209.22 145.72 209.28 145.45 C 209.35 145.17 211.06 138.56 214.98 137.85 C 217.28 137.43 219.76 139.12 222.37 142.85 C 222.53 143.08 222.47 143.39 222.25 143.55 C 222.14 143.63 222.00 143.66 221.87 143.63 C 221.74 143.61 221.62 143.53 221.55 143.42 C 219.18 140.01 217.03 138.42 215.16 138.80 C 211.86 139.40 210.27 145.61 210.25 145.67 C 210.20 145.90 210.00 146.06 209.77 146.06 Z" fill="#261c2a" fill-rule="nonzero" node-id="207" stroke="none" target-height="8.630005" target-width="13.309525" target-x="209.2162" target-y="137.43"></path><path d="M 164.67 188.91 C 164.57 188.91 164.47 188.88 164.38 188.82 C 164.19 188.68 145.71 175.40 157.16 158.38 C 154.78 156.84 144.01 149.31 142.49 139.23 C 141.74 134.31 143.35 129.55 147.27 125.08 C 147.45 124.87 147.77 124.85 147.98 125.03 C 148.19 125.21 148.21 125.53 148.03 125.74 C 144.31 129.97 142.78 134.46 143.47 139.08 C 145.08 149.72 157.99 157.73 158.12 157.81 C 158.24 157.88 158.32 158.00 158.35 158.14 C 158.38 158.28 158.35 158.42 158.27 158.53 C 153.46 165.40 153.10 172.43 157.21 179.43 C 159.24 182.75 161.88 185.66 165.00 188.00 C 165.22 188.16 165.28 188.47 165.12 188.70 C 165.02 188.84 164.85 188.92 164.67 188.91 Z" fill="#261c2a" fill-rule="nonzero" node-id="209" stroke="none" target-height="64.07303" target-width="23.53572" target-x="141.74" target-y="124.84775"></path><path d="M 146.80 187.26 C 146.54 187.26 146.32 187.05 146.30 186.79 C 146.30 186.64 145.51 171.68 156.18 160.01 C 156.37 159.85 156.65 159.86 156.84 160.03 C 157.02 160.20 157.05 160.47 156.91 160.68 C 146.53 172.04 147.29 186.58 147.30 186.68 C 147.31 186.81 147.27 186.95 147.18 187.05 C 147.09 187.15 146.96 187.20 146.83 187.21 Z" fill="#261c2a" fill-rule="nonzero" node-id="211" stroke="none" target-height="27.409744" target-width="11.542694" target-x="145.51" target-y="159.85025"></path><path d="M 153.74 118.00 C 153.58 118.00 153.42 117.92 153.33 117.79 C 152.62 116.79 146.43 107.96 147.20 104.90 C 147.30 104.47 147.59 104.10 147.99 103.90 C 151.11 102.34 157.13 113.26 158.30 115.46 C 158.43 115.70 158.34 116.00 158.10 116.14 C 157.85 116.26 157.56 116.17 157.42 115.93 C 154.26 110.00 149.91 104.05 148.42 104.80 C 148.27 104.87 148.17 105.01 148.15 105.17 C 147.60 107.39 152.28 114.64 154.15 117.24 C 154.31 117.47 154.25 117.78 154.03 117.94 C 153.94 117.99 153.84 118.01 153.74 118.00 Z" fill="#261c2a" fill-rule="nonzero" node-id="213" stroke="none" target-height="15.668533" target-width="11.997482" target-x="146.43" target-y="102.34"></path><path d="M 199.56 105.54 C 199.37 105.55 199.19 105.44 199.11 105.27 C 197.53 102.27 192.91 94.27 190.54 93.78 C 190.49 93.77 190.43 93.77 190.38 93.78 C 189.82 94.39 191.92 99.54 194.89 104.78 C 194.99 104.94 194.99 105.13 194.90 105.30 C 194.81 105.46 194.64 105.55 194.45 105.55 C 194.27 105.54 194.10 105.44 194.02 105.27 C 192.67 102.87 188.34 94.89 189.57 93.17 C 189.83 92.81 190.29 92.66 190.72 92.78 C 194.00 93.39 199.39 103.63 200.00 104.78 C 200.06 104.90 200.07 105.04 200.03 105.17 C 199.99 105.29 199.90 105.40 199.78 105.46 C 199.72 105.51 199.64 105.53 199.56 105.54 Z" fill="#261c2a" fill-rule="nonzero" node-id="215" stroke="none" target-height="12.898216" target-width="11.73439" target-x="188.34" target-y="92.65579"></path><path d="M 116.87 191.88 C 112.99 191.88 109.71 186.40 108.57 184.26 C 105.86 188.69 102.94 190.91 99.86 190.83 C 95.45 190.73 92.18 185.97 91.09 184.15 C 87.71 188.68 84.24 190.84 80.79 190.60 C 76.33 190.28 73.27 186.05 72.16 184.25 C 70.10 187.85 67.63 189.78 64.83 189.98 C 60.17 190.32 56.04 185.74 54.71 184.09 C 52.39 187.53 49.66 189.37 46.60 189.56 C 41.53 189.86 37.16 185.56 35.76 184.07 C 33.20 188.18 28.32 190.21 23.60 189.13 C 23.32 189.06 23.16 188.78 23.23 188.50 C 23.30 188.22 23.58 188.06 23.86 188.13 C 28.38 189.22 33.07 187.11 35.25 183.00 C 35.33 182.85 35.48 182.76 35.64 182.75 C 35.81 182.73 35.97 182.80 36.07 182.93 C 36.07 182.99 41.01 188.93 46.54 188.58 C 49.44 188.41 52.03 186.52 54.26 182.98 C 54.35 182.84 54.50 182.75 54.67 182.75 C 54.84 182.74 54.99 182.82 55.09 182.95 C 55.09 183.02 59.75 189.36 64.76 188.95 C 67.39 188.76 69.76 186.75 71.70 182.95 C 71.79 182.79 71.96 182.69 72.15 182.69 L 72.15 182.69 C 72.34 182.69 72.51 182.79 72.59 182.96 C 72.59 183.02 75.87 189.21 80.86 189.57 C 84.10 189.79 87.43 187.57 90.74 182.90 C 90.83 182.75 91.01 182.67 91.18 182.69 C 91.36 182.70 91.51 182.80 91.59 182.96 C 91.59 183.02 95.13 189.69 99.88 189.79 C 102.73 189.87 105.53 187.55 108.18 182.94 C 108.26 182.77 108.44 182.67 108.63 182.69 C 108.82 182.69 108.98 182.80 109.06 182.97 C 109.06 183.05 112.90 191.03 117.06 190.83 C 119.34 190.72 121.40 188.09 123.18 183.02 C 123.25 182.82 123.43 182.69 123.64 182.69 C 123.85 182.69 124.04 182.81 124.12 183.00 C 124.12 183.07 126.91 190.00 131.12 190.27 C 133.82 190.46 136.59 187.99 139.41 182.94 C 139.48 182.82 139.60 182.73 139.74 182.70 C 139.88 182.66 140.03 182.70 140.14 182.79 C 140.25 182.86 150.67 190.60 156.33 188.14 C 156.58 188.04 156.87 188.15 156.98 188.40 C 157.04 188.52 157.04 188.66 156.99 188.79 C 156.94 188.91 156.84 189.01 156.72 189.06 C 151.19 191.46 142.16 185.45 140.00 183.92 C 137.07 189.00 134.06 191.48 131.06 191.27 C 127.28 191.01 124.69 186.64 123.65 184.51 C 121.80 189.24 119.59 191.71 117.06 191.83 Z" fill="#261c2a" fill-rule="nonzero" node-id="217" stroke="none" target-height="9.216019" target-width="133.88226" target-x="23.158203" target-y="182.66399"></path><path d="M 134.35 205.59 C 130.47 205.59 127.18 200.11 126.05 197.97 C 123.33 202.40 120.41 204.61 117.33 204.54 C 112.92 204.44 109.66 199.68 108.56 197.86 C 105.18 202.39 101.71 204.56 98.26 204.31 C 93.80 203.99 90.74 199.76 89.63 197.96 C 87.57 201.56 85.11 203.49 82.30 203.69 C 77.61 204.02 73.51 199.45 72.19 197.80 C 69.86 201.24 67.19 203.08 64.07 203.27 C 59.01 203.57 54.63 199.27 53.23 197.78 C 50.67 201.89 45.79 203.92 41.07 202.83 C 40.81 202.76 40.65 202.48 40.72 202.22 C 40.80 201.95 41.07 201.80 41.34 201.87 C 45.87 202.95 50.56 200.82 52.72 196.69 C 52.80 196.54 52.95 196.45 53.11 196.44 C 53.28 196.42 53.44 196.49 53.54 196.62 C 53.59 196.68 58.54 202.62 64.01 202.27 C 66.91 202.09 69.51 200.21 71.73 196.67 C 71.82 196.53 71.97 196.44 72.14 196.44 C 72.31 196.42 72.47 196.50 72.56 196.64 C 72.56 196.71 77.23 203.05 82.24 202.69 C 84.87 202.50 87.24 200.49 89.18 196.69 C 89.26 196.52 89.43 196.42 89.62 196.42 L 89.62 196.42 C 89.81 196.42 89.98 196.53 90.06 196.70 C 90.06 196.76 93.34 202.95 98.33 203.31 C 101.58 203.54 104.90 201.31 108.21 196.64 C 108.31 196.49 108.48 196.41 108.65 196.43 C 108.82 196.44 108.98 196.54 109.06 196.69 C 109.06 196.76 112.61 203.43 117.36 203.53 C 120.21 203.63 123.00 201.29 125.65 196.68 C 125.74 196.51 125.91 196.42 126.10 196.43 C 126.29 196.43 126.46 196.54 126.54 196.71 C 126.54 196.79 130.40 204.77 134.54 204.57 C 136.83 204.46 138.89 201.83 140.67 196.76 C 140.74 196.56 140.92 196.43 141.13 196.42 C 141.34 196.42 141.52 196.55 141.60 196.74 C 141.60 196.81 144.40 203.74 148.66 204.01 C 151.35 204.21 154.13 201.73 156.94 196.68 C 157.01 196.56 157.13 196.47 157.27 196.44 C 157.41 196.41 157.56 196.44 157.68 196.52 C 157.78 196.60 168.20 204.34 173.86 201.88 C 174.11 201.77 174.41 201.89 174.52 202.14 C 174.63 202.39 174.51 202.69 174.26 202.80 C 168.72 205.20 159.69 199.19 157.54 197.66 C 154.61 202.74 151.60 205.22 148.59 205.01 C 144.82 204.75 142.23 200.38 141.18 198.24 C 139.34 202.98 137.12 205.45 134.59 205.57 Z" fill="#261c2a" fill-rule="nonzero" node-id="219" stroke="none" target-height="9.180588" target-width="133.98067" target-x="40.64979" target-y="196.40941"></path><path d="M 45.38 149.84 L 45.30 149.84 C 45.17 149.82 45.05 149.75 44.97 149.64 C 44.90 149.53 44.87 149.40 44.89 149.27 C 45.12 147.77 45.93 146.42 47.15 145.51 C 47.26 145.43 47.39 145.41 47.52 145.43 C 47.65 145.46 47.77 145.54 47.84 145.65 C 47.99 145.88 47.93 146.19 47.70 146.34 C 46.72 147.10 46.07 148.21 45.87 149.43 C 45.83 149.67 45.62 149.84 45.38 149.84 Z" fill="#261c2a" fill-rule="nonzero" node-id="221" stroke="none" target-height="4.432556" target-width="3.1236649" target-x="44.86696" target-y="145.40744"></path><path d="M 47.00 156.05 L 46.92 156.05 C 46.65 156.00 46.47 155.75 46.51 155.48 C 46.74 153.98 47.55 152.63 48.77 151.72 C 48.88 151.64 49.01 151.62 49.14 151.64 C 49.27 151.67 49.39 151.75 49.46 151.86 C 49.61 152.09 49.55 152.39 49.33 152.55 L 49.33 152.55 C 48.35 153.31 47.69 154.41 47.50 155.64 C 47.45 155.88 47.24 156.05 47.00 156.05 Z" fill="#261c2a" fill-rule="nonzero" node-id="223" stroke="none" target-height="4.4325714" target-width="3.1447754" target-x="46.467834" target-y="151.61743"></path><path d="M 41.81 156.89 L 41.73 156.89 C 41.60 156.87 41.48 156.80 41.40 156.69 C 41.32 156.59 41.29 156.45 41.31 156.32 C 41.54 154.82 42.35 153.47 43.57 152.56 C 43.80 152.41 44.11 152.47 44.26 152.70 C 44.34 152.81 44.37 152.94 44.34 153.07 C 44.32 153.20 44.24 153.32 44.13 153.39 C 43.15 154.15 42.50 155.26 42.30 156.48 C 42.26 156.72 42.05 156.89 41.81 156.89 Z" fill="#261c2a" fill-rule="nonzero" node-id="225" stroke="none" target-height="4.4838715" target-width="3.0751572" target-x="41.28993" target-y="152.40938"></path><path d="M 51.48 149.84 L 51.40 149.84 C 51.13 149.79 50.94 149.54 50.98 149.27 C 51.22 147.77 52.03 146.42 53.24 145.51 C 53.47 145.36 53.78 145.42 53.94 145.65 C 54.09 145.87 54.03 146.19 53.80 146.34 L 53.80 146.34 C 52.83 147.10 52.19 148.20 52.00 149.42 C 51.96 149.67 51.74 149.85 51.48 149.84 Z" fill="#261c2a" fill-rule="nonzero" node-id="227" stroke="none" target-height="4.4980927" target-width="3.1458206" target-x="50.94382" target-y="145.35536"></path><path d="M 50.00 143.40 L 49.92 143.40 C 49.79 143.38 49.67 143.30 49.59 143.20 C 49.52 143.09 49.49 142.95 49.51 142.82 C 49.74 141.32 50.55 139.97 51.77 139.06 C 51.92 138.94 52.12 138.92 52.29 139.00 C 52.46 139.07 52.58 139.24 52.58 139.43 C 52.59 139.62 52.49 139.80 52.32 139.89 C 51.34 140.66 50.69 141.77 50.50 143.00 C 50.45 143.24 50.24 143.40 50.00 143.40 Z" fill="#261c2a" fill-rule="nonzero" node-id="229" stroke="none" target-height="4.4890137" target-width="3.102398" target-x="49.486835" target-y="138.91585"></path><path d="M 51.00 156.89 L 50.92 156.89 C 50.65 156.84 50.47 156.59 50.51 156.32 C 50.74 154.82 51.55 153.47 52.77 152.56 C 52.92 152.44 53.12 152.42 53.29 152.50 C 53.46 152.57 53.58 152.74 53.58 152.93 C 53.59 153.12 53.49 153.30 53.32 153.39 C 52.35 154.16 51.70 155.26 51.50 156.48 C 51.46 156.72 51.24 156.89 51.00 156.89 Z" fill="#261c2a" fill-rule="nonzero" node-id="231" stroke="none" target-height="4.478134" target-width="3.121399" target-x="50.467834" target-y="152.41585"></path><path d="M 55.20 143.40 L 55.13 143.40 C 54.85 143.35 54.67 143.10 54.71 142.82 C 54.95 141.31 55.77 139.96 57.00 139.06 C 57.23 138.91 57.54 138.97 57.70 139.19 C 57.85 139.42 57.79 139.74 57.56 139.89 L 57.56 139.89 C 56.56 140.65 55.90 141.76 55.70 143.00 C 55.65 143.24 55.44 143.40 55.20 143.40 Z" fill="#261c2a" fill-rule="nonzero" node-id="233" stroke="none" target-height="4.4994965" target-width="3.1817322" target-x="54.667908" target-y="138.90536"></path><path d="M 52.05 137.69 L 52.00 137.69 C 51.87 137.67 51.75 137.60 51.67 137.49 C 51.59 137.39 51.56 137.25 51.58 137.12 C 51.81 135.62 52.62 134.27 53.84 133.36 C 54.07 133.21 54.38 133.27 54.53 133.50 C 54.69 133.72 54.63 134.04 54.40 134.19 L 54.40 134.19 C 53.42 134.95 52.76 136.05 52.57 137.28 C 52.53 137.53 52.30 137.71 52.05 137.69 Z" fill="#261c2a" fill-rule="nonzero" node-id="235" stroke="none" target-height="4.5034943" target-width="3.1297112" target-x="51.55993" target-y="133.20535"></path><path d="M 46.63 163.65 L 46.55 163.65 C 46.28 163.60 46.09 163.35 46.13 163.08 C 46.36 161.58 47.17 160.23 48.39 159.32 C 48.62 159.17 48.93 159.23 49.09 159.46 C 49.24 159.68 49.18 160.00 48.95 160.15 C 47.97 160.91 47.32 162.02 47.12 163.24 C 47.08 163.48 46.87 163.65 46.63 163.65 Z" fill="#261c2a" fill-rule="nonzero" node-id="237" stroke="none" target-height="4.4846344" target-width="3.1458168" target-x="46.093822" target-y="159.16536"></path><path d="M 38.00 171.90 C 37.87 171.90 37.74 171.85 37.65 171.76 C 37.55 171.67 37.50 171.54 37.50 171.41 C 37.46 169.89 38.02 168.42 39.06 167.31 C 39.15 167.22 39.28 167.16 39.41 167.16 C 39.55 167.16 39.68 167.22 39.77 167.31 C 39.86 167.40 39.92 167.53 39.92 167.66 C 39.92 167.79 39.86 167.92 39.77 168.01 C 38.94 168.94 38.50 170.14 38.52 171.38 C 38.52 171.66 38.30 171.88 38.02 171.88 Z" fill="#261c2a" fill-rule="nonzero" node-id="239" stroke="none" target-height="4.7406006" target-width="2.4560432" target-x="37.46103" target-y="167.1621"></path><path d="M 40.00 164.24 L 39.92 164.24 C 39.79 164.22 39.67 164.15 39.59 164.04 C 39.52 163.93 39.49 163.80 39.51 163.67 C 39.74 162.17 40.55 160.82 41.76 159.91 C 41.99 159.76 42.30 159.82 42.46 160.05 C 42.61 160.28 42.55 160.59 42.32 160.74 C 41.34 161.50 40.69 162.61 40.49 163.83 C 40.45 164.07 40.24 164.24 40.00 164.24 Z" fill="#261c2a" fill-rule="nonzero" node-id="241" stroke="none" target-height="4.4816437" target-width="3.1236649" target-x="39.486958" target-y="159.75836"></path><path d="M 43.16 169.00 C 42.89 168.99 42.67 168.78 42.66 168.51 C 42.61 166.99 43.16 165.52 44.18 164.40 C 44.30 164.26 44.50 164.20 44.68 164.24 C 44.86 164.29 45.00 164.43 45.04 164.61 C 45.09 164.80 45.02 164.99 44.88 165.11 C 44.07 166.05 43.63 167.25 43.66 168.49 C 43.67 168.76 43.45 168.99 43.18 169.00 Z" fill="#261c2a" fill-rule="nonzero" node-id="243" stroke="none" target-height="4.80249" target-width="2.4750748" target-x="42.611862" target-y="164.19751"></path><path d="M 115.54 106.50 C 115.43 106.50 115.33 106.46 115.24 106.39 L 115.24 106.39 C 114.22 105.68 112.91 105.53 111.76 105.99 C 111.50 106.09 111.21 105.97 111.11 105.71 C 111.01 105.45 111.13 105.16 111.39 105.06 C 112.87 104.48 114.55 104.68 115.85 105.60 C 116.07 105.77 116.11 106.09 115.94 106.31 C 115.84 106.43 115.69 106.50 115.54 106.50 Z" fill="#261c2a" fill-rule="nonzero" node-id="245" stroke="none" target-height="2.0244217" target-width="5.101143" target-x="111.00783" target-y="104.47558"></path><path d="M 110.63 111.93 C 110.52 111.93 110.41 111.90 110.32 111.83 L 110.32 111.83 C 109.30 111.11 107.99 110.96 106.84 111.42 C 106.67 111.50 106.47 111.48 106.32 111.37 C 106.17 111.25 106.10 111.06 106.13 110.88 C 106.17 110.69 106.30 110.54 106.48 110.49 C 107.96 109.91 109.64 110.12 110.94 111.04 C 111.05 111.12 111.11 111.24 111.13 111.37 C 111.14 111.50 111.10 111.64 111.02 111.74 C 110.93 111.86 110.78 111.93 110.63 111.93 Z" fill="#261c2a" fill-rule="nonzero" node-id="247" stroke="none" target-height="2.0239182" target-width="5.043503" target-x="106.10002" target-y="109.90846"></path><path d="M 107.64 106.28 C 107.53 106.28 107.42 106.25 107.33 106.18 L 107.33 106.18 C 106.31 105.46 105.00 105.31 103.85 105.77 C 103.73 105.82 103.59 105.82 103.47 105.76 C 103.35 105.71 103.25 105.61 103.20 105.49 C 103.10 105.23 103.23 104.95 103.48 104.84 C 104.97 104.25 106.65 104.46 107.95 105.39 C 108.12 105.52 108.18 105.74 108.11 105.94 C 108.04 106.14 107.85 106.28 107.64 106.28 Z" fill="#261c2a" fill-rule="nonzero" node-id="249" stroke="none" target-height="2.029274" target-width="5.0755844" target-x="103.10335" target-y="104.25293"></path><path d="M 118.19 113.76 C 118.08 113.76 117.97 113.73 117.88 113.66 L 117.88 113.66 C 116.86 112.95 115.55 112.80 114.40 113.26 C 114.14 113.36 113.85 113.24 113.75 112.98 C 113.65 112.72 113.77 112.43 114.03 112.33 C 115.51 111.74 117.19 111.94 118.49 112.87 C 118.71 113.04 118.75 113.35 118.58 113.57 C 118.49 113.69 118.34 113.76 118.19 113.76 Z" fill="#261c2a" fill-rule="nonzero" node-id="251" stroke="none" target-height="2.0222778" target-width="5.100075" target-x="113.64783" target-y="111.73993"></path><path d="M 123.34 108.32 C 123.23 108.32 123.13 108.29 123.04 108.22 C 122.02 107.51 120.72 107.35 119.56 107.81 C 119.30 107.91 119.01 107.79 118.91 107.53 C 118.81 107.27 118.93 106.98 119.19 106.88 C 120.67 106.29 122.35 106.50 123.65 107.43 C 123.87 107.60 123.91 107.91 123.74 108.13 C 123.64 108.25 123.49 108.32 123.34 108.32 Z" fill="#261c2a" fill-rule="nonzero" node-id="253" stroke="none" target-height="2.0298386" target-width="5.100067" target-x="118.80783" target-y="106.2909"></path><path d="M 111.63 117.26 C 111.52 117.26 111.41 117.23 111.32 117.16 C 110.30 116.45 108.99 116.30 107.84 116.76 C 107.58 116.85 107.30 116.73 107.20 116.47 C 107.15 116.35 107.15 116.21 107.20 116.09 C 107.25 115.97 107.36 115.87 107.48 115.83 C 108.96 115.24 110.64 115.44 111.94 116.37 C 112.11 116.50 112.17 116.72 112.10 116.92 C 112.03 117.12 111.84 117.26 111.63 117.26 Z" fill="#261c2a" fill-rule="nonzero" node-id="255" stroke="none" target-height="2.0207977" target-width="5.020729" target-x="107.1482" target-y="115.23993"></path><path d="M 125.60 114.52 C 125.49 114.52 125.38 114.48 125.29 114.41 L 125.29 114.41 C 124.27 113.70 122.96 113.55 121.81 114.01 C 121.64 114.09 121.44 114.07 121.29 113.96 C 121.14 113.84 121.07 113.65 121.10 113.47 C 121.14 113.28 121.27 113.13 121.45 113.08 C 122.93 112.49 124.61 112.70 125.91 113.63 C 126.08 113.76 126.14 113.98 126.07 114.18 C 126.00 114.38 125.81 114.52 125.60 114.52 Z" fill="#261c2a" fill-rule="nonzero" node-id="257" stroke="none" target-height="2.0290985" target-width="5.0689087" target-x="121.07002" target-y="112.4909"></path><path d="M 129.38 107.48 C 129.27 107.48 129.16 107.45 129.07 107.38 C 128.05 106.67 126.75 106.51 125.59 106.97 C 125.42 107.05 125.22 107.03 125.07 106.92 C 124.92 106.80 124.85 106.61 124.88 106.43 C 124.92 106.24 125.05 106.09 125.23 106.04 C 126.71 105.46 128.39 105.67 129.69 106.59 C 129.90 106.76 129.94 107.07 129.77 107.29 C 129.68 107.41 129.53 107.48 129.38 107.48 Z" fill="#261c2a" fill-rule="nonzero" node-id="259" stroke="none" target-height="2.0239182" target-width="5.090164" target-x="124.85002" target-y="105.45846"></path><path d="M 103.64 115.90 C 103.53 115.90 103.42 115.86 103.33 115.79 L 103.33 115.79 C 102.31 115.08 101.00 114.93 99.85 115.39 C 99.59 115.49 99.30 115.37 99.20 115.11 C 99.10 114.85 99.22 114.56 99.48 114.46 C 100.98 113.86 102.68 114.06 104.00 115.00 C 104.21 115.17 104.25 115.48 104.08 115.70 C 103.98 115.84 103.81 115.92 103.64 115.90 Z" fill="#261c2a" fill-rule="nonzero" node-id="261" stroke="none" target-height="2.0560303" target-width="5.1523514" target-x="99.097824" target-y="113.85931"></path><path d="M 88.50 109.90 C 88.28 109.90 88.09 109.75 88.03 109.55 C 87.96 109.34 88.04 109.11 88.22 108.99 C 89.53 108.07 91.22 107.88 92.69 108.50 C 92.81 108.56 92.90 108.66 92.94 108.79 C 92.99 108.91 92.98 109.05 92.92 109.17 C 92.80 109.41 92.50 109.52 92.25 109.40 C 91.10 108.93 89.78 109.09 88.77 109.82 C 88.69 109.87 88.60 109.90 88.50 109.90 Z" fill="#261c2a" fill-rule="nonzero" node-id="263" stroke="none" target-height="2.0207214" target-width="5.0229263" target-x="87.96435" target-y="107.88219"></path><path d="M 100.24 108.36 C 100.13 108.36 100.03 108.33 99.94 108.26 L 99.94 108.26 C 98.92 107.55 97.61 107.40 96.45 107.85 C 96.20 107.93 95.93 107.80 95.84 107.55 C 95.74 107.31 95.85 107.03 96.09 106.92 C 97.57 106.34 99.25 106.54 100.55 107.47 C 100.72 107.60 100.78 107.82 100.71 108.02 C 100.64 108.22 100.45 108.36 100.24 108.36 Z" fill="#261c2a" fill-rule="nonzero" node-id="265" stroke="none" target-height="2.025734" target-width="5.0351257" target-x="95.743805" target-y="106.336586"></path><path d="M 93.37 114.34 C 93.21 114.34 93.05 114.27 92.96 114.13 C 92.88 114.02 92.85 113.88 92.88 113.75 C 92.90 113.62 92.98 113.50 93.09 113.43 C 94.38 112.49 96.07 112.28 97.55 112.88 C 97.72 112.95 97.85 113.11 97.86 113.29 C 97.88 113.48 97.80 113.66 97.64 113.76 C 97.48 113.87 97.28 113.87 97.12 113.78 C 95.96 113.34 94.65 113.52 93.65 114.26 C 93.57 114.32 93.47 114.34 93.37 114.34 Z" fill="#261c2a" fill-rule="nonzero" node-id="267" stroke="none" target-height="2.0632172" target-width="5.029457" target-x="92.85418" target-y="112.28122"></path><path d="M 200.62 197.06 C 192.94 197.03 185.38 195.24 178.51 191.81 C 178.39 191.75 178.31 191.64 178.27 191.51 C 178.23 191.38 178.25 191.24 178.32 191.13 C 178.46 190.89 178.76 190.81 179.00 190.94 C 185.62 194.27 192.92 196.05 200.33 196.15 C 220.45 196.27 233.17 182.69 240.28 171.25 C 240.43 171.02 240.73 170.94 240.97 171.08 C 241.09 171.15 241.17 171.26 241.20 171.39 C 241.23 171.52 241.20 171.66 241.13 171.77 C 228.59 192.00 213.07 197.06 200.62 197.06 Z" fill="#261c2a" fill-rule="nonzero" node-id="269" stroke="none" target-height="26.119263" target-width="62.99315" target-x="178.23451" target-y="170.94073"></path></svg>